<?xml version="1.0" encoding="UTF-8"?>
<svg version="1.1" xmlns="http://www.w3.org/2000/svg" width="252" height="183">
<path d="M0 0 C83.16 0 166.32 0 252 0 C252 60.39 252 120.78 252 183 C168.84 183 85.68 183 0 183 C0 122.61 0 62.22 0 0 Z " fill="#111111" transform="translate(0,0)"/>
<path d="M0 0 C2.9364126 2.14363336 3.87562631 3.4537451 4.6875 7.01953125 C4.8421875 8.89705078 4.8421875 8.89705078 5 10.8125 C5.14289616 12.31668817 5.28902216 13.82057128 5.4375 15.32421875 C5.52 16.19353027 5.6025 17.0628418 5.6875 17.95849609 C6.27344708 23.66140912 7.00555163 29.34665406 7.73388672 35.0328064 C7.99620745 37.09518281 8.2503867 39.15844955 8.50390625 41.22192383 C8.74947266 43.15781372 8.74947266 43.15781372 9 45.1328125 C9.144375 46.28668457 9.28875 47.44055664 9.4375 48.62939453 C10.3793713 54.27326396 11.67377975 59.28785464 15 64 C15.99 64.495 15.99 64.495 17 65 C17.09925781 64.32582031 17.19851562 63.65164062 17.30078125 62.95703125 C18.16135652 59.31761516 19.63597215 56.07065819 21.1875 52.6875 C23.72565945 47.04765472 26.02120313 41.37762095 28.125 35.5625 C31.42676497 26.63728326 35.00803919 19.82194062 41.375 12.6875 C41.82125732 12.1831543 42.26751465 11.67880859 42.72729492 11.15917969 C47.03331803 6.53204255 51.41625466 3.3875618 57.75 2.4375 C61 3 61 3 62.8125 5.1875 C65.1875 10.8125 65.1875 10.8125 66 13 C66.65355469 12.20335937 66.65355469 12.20335937 67.3203125 11.390625 C71.77618299 6.10530676 75.90040114 1.28306004 83 0 C91.4899801 -0.3461143 100.01635209 -0.03455542 108.5 0.375 C109.22848145 0.40577637 109.95696289 0.43655273 110.70751953 0.46826172 C117.57487208 0.84655474 124.32575265 1.8277593 130 6 C132 9 132 9 131.96875 11.0859375 C131.13328294 15.16580164 130.41159197 18.14661935 127.1875 20.9375 C124 23 124 23 121.25 24 C118.79756496 24.79674861 118.79756496 24.79674861 117.94140625 27.2421875 C117.04778074 29.86002822 116.32677163 32.43456848 115.6875 35.125 C114.18181264 41.32265252 112.55155779 47.48175648 110.90698242 53.64355469 C109.66978694 58.32223486 108.52800864 63.00858546 107.47827148 67.73266602 C102.2410956 91.1916851 102.2410956 91.1916851 93.9921875 97.546875 C88.48621017 100.67573297 83.41080567 102.51155835 77 102 C73.51216706 100.62977992 71.81255534 99.59023706 70.08984375 96.21875 C66.29872073 84.05083421 73.95898141 68.60129828 78 57.125 C78.53979674 55.57056728 79.07886268 54.01588058 79.6171875 52.4609375 C80.60898683 49.60541608 81.60255239 46.75056358 82.60546875 43.89892578 C82.94263916 42.94013519 82.94263916 42.94013519 83.28662109 41.9619751 C83.78551804 40.58988043 84.30592403 39.22550232 84.84228516 37.86761475 C86.24260269 34.31565231 87 31.87036147 87 28 C85.84242188 27.97421875 84.68484375 27.9484375 83.4921875 27.921875 C81.95308872 27.86556651 80.41402767 27.8082198 78.875 27.75 C78.11445313 27.73582031 77.35390625 27.72164062 76.5703125 27.70703125 C71.30711458 27.48016927 68.18607181 26.46255323 64 23 C62.625 20.75 62.625 20.75 62 19 C61.34 19 60.68 19 60 19 C59.55011719 19.96035156 59.10023438 20.92070313 58.63671875 21.91015625 C56.85415475 25.71085084 55.0633838 29.50764074 53.27099609 33.30371094 C52.40203487 35.14712388 51.53527382 36.99157514 50.67041016 38.83691406 C45.49778211 49.86816574 40.26654851 60.70882491 34.04638672 71.19238281 C32.8481861 73.26225621 31.70513918 75.35777203 30.56640625 77.4609375 C24.57733634 88.51424392 18.21471171 98.69095109 9.73828125 108.05078125 C7.85462725 110.11138225 7.85462725 110.11138225 5.7734375 112.93359375 C2.81843145 116.4863788 -0.6616373 118.56224831 -4.6875 120.75 C-5.39575928 121.14050537 -6.10401855 121.53101074 -6.83374023 121.93334961 C-12.10413693 124.73938399 -16.98964818 126.59930988 -23 127 C-24.258125 127.103125 -25.51625 127.20625 -26.8125 127.3125 C-30.65437938 126.93584516 -33.25668787 125.74331213 -36 123 C-36.45231605 117.48996814 -35.49499037 114.08167054 -32.875 109.25 C-32.00488281 107.58710938 -32.00488281 107.58710938 -31.1171875 105.890625 C-28.31159052 102.06010513 -25.67336996 100.55445231 -21.02001953 99.58935547 C-18.89062178 99.26597139 -16.76830202 99.02372958 -14.625 98.8125 C-13.88894531 98.73064453 -13.15289062 98.64878906 -12.39453125 98.56445312 C-10.59745375 98.36607444 -8.79885107 98.18159423 -7 98 C-6.47229926 91.10050976 -8.0471601 86.83116569 -11.1875 80.75 C-12.0208037 79.0514049 -12.85284149 77.35218817 -13.68359375 75.65234375 C-14.96135197 73.07890285 -16.24628653 70.50930699 -17.53515625 67.94140625 C-23.95989546 54.03835324 -27.04873944 36.13725947 -27.25 20.875 C-27.27578125 19.69679688 -27.3015625 18.51859375 -27.328125 17.3046875 C-26.83387895 12.32692369 -24.89257587 9.87132406 -21.375 6.4375 C-15.42333958 1.79373533 -7.67704539 -1.99632538 0 0 Z " fill="#F3F3F3" transform="translate(77,29)"/>
<path d="M0 0 C3.8967311 1.65818345 5.41466623 3.14096384 7 7 C7.58917111 11.27722925 7.44539482 14.95332218 5.75 18.9375 C3.35429915 21.76100458 1.26967806 22.82245152 -2.40234375 23.3359375 C-9.27825651 23.44188377 -9.27825651 23.44188377 -13.0625 21.125 C-16.61994092 17.2232906 -16.38622343 13.82836836 -16.359375 8.70703125 C-16 6 -16 6 -13.625 2.875 C-9.04713852 -0.39490106 -5.52973415 -0.53575279 0 0 Z " fill="#D3705B" transform="translate(207,102)"/>
</svg>
